<svg width="301" height="109" viewBox="0 0 301 109" fill="none" xmlns="http://www.w3.org/2000/svg">
<g clip-path="url(#clip0_44_660)">
<path d="M50.6969 47.4618V73.2178H45V47.4618H50.6969ZM82.212 48.6113C83.7632 50.0363 84.5621 51.9046 84.5933 54.1719V73.2036H78.8356V56.1637C78.7593 54.7087 78.3232 53.575 77.5539 52.7469C76.7861 51.9204 75.6103 51.4913 74.0732 51.4454C71.8274 51.4454 69.9726 52.3638 68.5118 54.1878C67.0494 56.0118 66.3112 58.3408 66.3112 61.1592V73.2337H60.6143V47.4618H65.7536L66.115 52.4413C67.0198 50.5714 68.3607 49.1163 70.1548 48.0587C71.9473 47.001 74.0124 46.4658 76.3329 46.4658C78.655 46.4658 80.6593 47.1863 82.212 48.6113ZM94.0419 53.1618C95.2488 51.0623 96.9215 49.4219 99.0613 48.2123C101.201 47.001 103.612 46.4041 106.311 46.4041C109.008 46.4041 111.405 47.001 113.5 48.2123C115.594 49.4219 117.237 51.0623 118.398 53.1301C119.558 55.1995 120.147 57.5286 120.147 60.1031C120.147 62.676 119.574 65.0051 118.398 67.1046C117.237 69.2041 115.594 70.8428 113.47 72.0541C111.344 73.2495 108.918 73.8623 106.189 73.8623C103.462 73.8623 101.156 73.2954 99.0317 72.1459C96.9059 70.9964 95.2488 69.4036 94.0419 67.3199C92.8365 65.2505 92.2338 62.8454 92.2338 60.1031C92.2338 57.3592 92.8365 55.2613 94.0419 53.1618ZM99.0613 64.6378C99.7699 66.001 100.75 67.0888 102 67.8709C103.237 68.6673 104.623 69.0505 106.13 69.0505C108.496 69.0505 110.455 68.2082 112.008 66.4918C113.561 64.7913 114.328 62.676 114.328 60.149C114.328 57.6204 113.561 55.4908 112.008 53.7745C110.455 52.0582 108.496 51.2 106.13 51.2C103.763 51.2 103.191 51.599 101.971 52.4113C100.75 53.2219 99.7839 54.3112 99.0613 55.6745C98.3527 57.0377 97.9914 58.5388 97.9914 60.149C97.9914 61.7577 98.3527 63.2587 99.0613 64.6219V64.6378ZM151.103 47.4618L137.583 73.9541H137.283L123.205 47.4459H130.003L137.659 63.8714L144.758 47.4459H151.118L151.103 47.4618ZM183.009 47.4618V73.2178H177.312V68.9887C176.407 70.2 175.111 71.3036 173.393 72.3138C171.676 73.3255 169.746 73.8464 167.575 73.8464C165.406 73.8464 162.995 73.3113 161.065 72.2678C159.12 71.2118 157.599 69.6632 156.468 67.6413C155.337 65.6178 154.78 63.1827 154.78 60.3628C154.78 57.5428 155.353 55.0918 156.529 52.9923C157.689 50.8928 159.257 49.2842 161.246 48.1363C163.221 46.9868 165.421 46.4199 167.832 46.4199C170.243 46.4199 171.872 46.8949 173.454 47.8449C175.051 48.7949 176.332 50.0505 177.312 51.5832L177.734 47.476H182.993L183.009 47.4618ZM174.479 67.274C175.971 66.0928 176.919 64.4842 177.327 62.4464V57.3449C176.845 55.5209 175.82 54.0342 174.267 52.9005C172.714 51.7668 170.937 51.1842 168.947 51.1842C166.958 51.1842 166.038 51.5531 164.758 52.3036C163.476 53.0541 162.451 54.0959 161.698 55.4449C160.944 56.7923 160.567 58.3092 160.567 60.0113C160.567 61.7118 160.959 63.1827 161.729 64.5459C162.497 65.9092 163.537 66.9969 164.848 67.8092C166.159 68.6214 167.575 69.0204 169.128 69.0204C170.681 69.0204 172.987 68.4378 174.479 67.2423V67.274ZM198.894 36V47.5219H205.541V51.7668H198.894V73.2178H192.82V51.7668H188.645V47.5219H192.82V36H198.894ZM218.23 47.4618V73.2178H212.534V47.4618H218.23ZM218.23 36H212.534V41.7918H218.23V36ZM50.6969 36H45V41.7918H50.6969V36ZM256 73.2337L230.665 47.476L222.722 47.4918L235.382 60.3628L222.706 73.2337H230.665L239.345 64.4082L248.042 73.2495L256 73.2337ZM241.32 46.1286V51.7827H247.771V58.9378H253.317V46.1286H241.32Z" fill="#1e293b"/>
<path d="M241.32 46.1284V51.7825H247.771V58.9376H253.317V46.1284H241.32Z" fill="#E8471B"/>
</g>
<defs>
<clipPath id="clip0_44_660">
<rect width="211" height="38" fill="white" transform="translate(45 36)"/>
</clipPath>
</defs>
</svg>
